<?xml version="1.0" encoding="UTF-8" standalone="no"?>
<!-- Created with Inkscape (http://www.inkscape.org/) -->

<svg
   xmlns:dc="http://purl.org/dc/elements/1.1/"
   xmlns:cc="http://creativecommons.org/ns#"
   xmlns:rdf="http://www.w3.org/1999/02/22-rdf-syntax-ns#"
   xmlns:svg="http://www.w3.org/2000/svg"
   xmlns="http://www.w3.org/2000/svg"
   xmlns:sodipodi="http://sodipodi.sourceforge.net/DTD/sodipodi-0.dtd"
   xmlns:inkscape="http://www.inkscape.org/namespaces/inkscape"
   width="200"
   height="200"
   id="svg2"
   version="1.1"
   inkscape:version="0.48.3.1 r9886"
   style="display:inline"
   sodipodi:docname="emergenesis_logo_square_master.svg"
   inkscape:export-filename="/home/joshua/Development/repos/emergenesis-creative/emergenesis-brand/emergenesis_boxed_logo.png"
   inkscape:export-xdpi="112.5"
   inkscape:export-ydpi="112.5">
  <defs
     id="defs4" />
  <sodipodi:namedview
     id="base"
     pagecolor="#ffffff"
     bordercolor="#666666"
     borderopacity="1.0"
     inkscape:pageopacity="0"
     inkscape:pageshadow="2"
     inkscape:zoom="1.4566077"
     inkscape:cx="-74.175785"
     inkscape:cy="99.999999"
     inkscape:document-units="px"
     inkscape:current-layer="layer3"
     showgrid="false"
     inkscape:window-width="1680"
     inkscape:window-height="1018"
     inkscape:window-x="0"
     inkscape:window-y="16"
     inkscape:window-maximized="0"
     fit-margin-top="0"
     fit-margin-left="0"
     fit-margin-right="0.6"
     fit-margin-bottom="0"
     showborder="true" />
  <metadata
     id="metadata7">
    <rdf:RDF>
      <cc:Work
         rdf:about="">
        <dc:format>image/svg+xml</dc:format>
        <dc:type
           rdf:resource="http://purl.org/dc/dcmitype/StillImage" />
        <dc:title />
      </cc:Work>
    </rdf:RDF>
  </metadata>
  <g
     inkscape:groupmode="layer"
     id="layer3"
     inkscape:label="Square Background"
     style="display:inline"
     transform="translate(208.5231,-71.823288)">
    <path
       style="fill:#ad235e;fill-opacity:1;stroke:none;display:inline"
       d="m -168.5231,71.823288 119.999998,0 c 22.16,0 40.0000002,17.84 40.0000002,40.000002 l 0,120 c 0,22.16 -17.8400002,40 -40.0000002,40 l -119.999998,0 c -22.16,0 -40,-17.84 -40,-40 l 0,-120 c 0,-22.160002 17.84,-40.000002 40,-40.000002 z"
       id="rect3932"
       inkscape:connector-curvature="0" />
  </g>
  <g
     inkscape:groupmode="layer"
     id="layer7"
     inkscape:label="Dots Top Left"
     style="display:inline">
    <path
       transform="matrix(0.59684653,0,0,0.59684653,0.32913863,-75.385275)"
       sodipodi:type="arc"
       style="fill:#7d99cf;fill-opacity:1;fill-rule:evenodd;stroke:none;display:inline"
       id="path2985-4-1-7-2-9"
       sodipodi:cx="83.337585"
       sodipodi:cy="210.22887"
       sodipodi:rx="20.708128"
       sodipodi:ry="20.708128"
       d="m 104.04571,210.22887 a 20.708128,20.708128 0 1 1 -41.416253,0 20.708128,20.708128 0 1 1 41.416253,0 z" />
    <path
       transform="matrix(0.32456253,0,0,0.32456253,45.907856,4.5554198)"
       sodipodi:type="arc"
       style="fill:#dffef0;fill-opacity:1;fill-rule:evenodd;stroke:none;display:inline"
       id="path2985-4-1-7-2-9-6-2"
       sodipodi:cx="83.337585"
       sodipodi:cy="210.22887"
       sodipodi:rx="20.708128"
       sodipodi:ry="20.708128"
       d="m 104.04571,210.22887 a 20.708128,20.708128 0 1 1 -41.416253,0 20.708128,20.708128 0 1 1 41.416253,0 z" />
  </g>
  <g
     inkscape:groupmode="layer"
     id="layer11"
     inkscape:label="Dots Left"
     style="display:inline">
    <path
       transform="matrix(0.59684653,0,0,0.59684653,-19.860605,-26.071215)"
       sodipodi:type="arc"
       style="fill:#bdd8da;fill-opacity:1;fill-rule:evenodd;stroke:none;display:inline"
       id="path2985-4-1-7-2-9-6-1-5"
       sodipodi:cx="83.337585"
       sodipodi:cy="210.22887"
       sodipodi:rx="20.708128"
       sodipodi:ry="20.708128"
       d="m 104.04571,210.22887 a 20.708128,20.708128 0 1 1 -41.416253,0 20.708128,20.708128 0 1 1 41.416253,0 z" />
    <path
       transform="matrix(0.32456253,0,0,0.32456253,34.71864,31.93153)"
       sodipodi:type="arc"
       style="fill:#dffef0;fill-opacity:1;fill-rule:evenodd;stroke:none;display:inline"
       id="path2985-4-1-7-2-9-6-2-1-1"
       sodipodi:cx="83.337585"
       sodipodi:cy="210.22887"
       sodipodi:rx="20.708128"
       sodipodi:ry="20.708128"
       d="m 104.04571,210.22887 a 20.708128,20.708128 0 1 1 -41.416253,0 20.708128,20.708128 0 1 1 41.416253,0 z" />
  </g>
  <g
     inkscape:groupmode="layer"
     id="layer9"
     inkscape:label="Dots Bottom Left"
     style="display:inline">
    <path
       transform="matrix(0.59684653,0,0,0.59684653,-0.26165037,23.49131)"
       sodipodi:type="arc"
       style="fill:#7d99cf;fill-opacity:1;fill-rule:evenodd;stroke:none;display:inline"
       id="path2985-4-1-7-2"
       sodipodi:cx="83.337585"
       sodipodi:cy="210.22887"
       sodipodi:rx="20.708128"
       sodipodi:ry="20.708128"
       d="m 104.04571,210.22887 a 20.708128,20.708128 0 1 1 -41.416253,0 20.708128,20.708128 0 1 1 41.416253,0 z" />
    <path
       transform="matrix(0.32456253,0,0,0.32456253,45.926735,58.65192)"
       sodipodi:type="arc"
       style="fill:#dffef0;fill-opacity:1;fill-rule:evenodd;stroke:none;display:inline"
       id="path2985-4-1-7-2-9-6-2-1"
       sodipodi:cx="83.337585"
       sodipodi:cy="210.22887"
       sodipodi:rx="20.708128"
       sodipodi:ry="20.708128"
       d="m 104.04571,210.22887 a 20.708128,20.708128 0 1 1 -41.416253,0 20.708128,20.708128 0 1 1 41.416253,0 z" />
  </g>
  <g
     inkscape:groupmode="layer"
     id="layer5"
     inkscape:label="Dots Bottom"
     style="display:inline">
    <path
       transform="matrix(0.59684653,0,0,0.59684653,49.373593,44.35668)"
       sodipodi:type="arc"
       style="fill:#bdd8da;fill-opacity:1;fill-rule:evenodd;stroke:none;display:inline"
       id="path2985-4-1-7-2-9-6-1-5-2"
       sodipodi:cx="83.337585"
       sodipodi:cy="210.22887"
       sodipodi:rx="20.708128"
       sodipodi:ry="20.708128"
       d="m 104.04571,210.22887 a 20.708128,20.708128 0 1 1 -41.416253,0 20.708128,20.708128 0 1 1 41.416253,0 z" />
    <path
       transform="matrix(0.32456253,0,0,0.32456253,72.886435,69.963)"
       sodipodi:type="arc"
       style="fill:#dffef0;fill-opacity:1;fill-rule:evenodd;stroke:none;display:inline"
       id="path2985-4-1-7-2-9-6-2-5-4-8-6-2"
       sodipodi:cx="83.337585"
       sodipodi:cy="210.22887"
       sodipodi:rx="20.708128"
       sodipodi:ry="20.708128"
       d="m 104.04571,210.22887 a 20.708128,20.708128 0 1 1 -41.416253,0 20.708128,20.708128 0 1 1 41.416253,0 z" />
  </g>
  <g
     inkscape:groupmode="layer"
     id="layer8"
     inkscape:label="Dots Bottom Right">
    <path
       transform="matrix(0.59684653,0,0,0.59684653,98.614948,23.49131)"
       sodipodi:type="arc"
       style="fill:#7d99cf;fill-opacity:1;fill-rule:evenodd;stroke:none;display:inline"
       id="path2985-4-1-7"
       sodipodi:cx="83.337585"
       sodipodi:cy="210.22887"
       sodipodi:rx="20.708128"
       sodipodi:ry="20.708128"
       d="m 104.04571,210.22887 a 20.708128,20.708128 0 1 1 -41.416253,0 20.708128,20.708128 0 1 1 41.416253,0 z" />
    <path
       transform="matrix(0.32456253,0,0,0.32456253,100.4821,58.87158)"
       sodipodi:type="arc"
       style="fill:#dffef0;fill-opacity:1;fill-rule:evenodd;stroke:none;display:inline"
       id="path2985-4-1-7-2-9-6-2-5-4"
       sodipodi:cx="83.337585"
       sodipodi:cy="210.22887"
       sodipodi:rx="20.708128"
       sodipodi:ry="20.708128"
       d="m 104.04571,210.22887 a 20.708128,20.708128 0 1 1 -41.416253,0 20.708128,20.708128 0 1 1 41.416253,0 z" />
  </g>
  <g
     inkscape:groupmode="layer"
     id="layer10"
     inkscape:label="Dots Right"
     style="display:inline">
    <path
       transform="matrix(0.59684653,0,0,0.59684653,119.71665,-26.537765)"
       sodipodi:type="arc"
       style="fill:#bdd8da;fill-opacity:1;fill-rule:evenodd;stroke:none;display:inline"
       id="path2985-4-1-7-2-9-6-1"
       sodipodi:cx="83.337585"
       sodipodi:cy="210.22887"
       sodipodi:rx="20.708128"
       sodipodi:ry="20.708128"
       d="m 104.04571,210.22887 a 20.708128,20.708128 0 1 1 -41.416253,0 20.708128,20.708128 0 1 1 41.416253,0 z" />
    <path
       transform="matrix(0.32456253,0,0,0.32456253,111.18484,31.93153)"
       sodipodi:type="arc"
       style="fill:#dffef0;fill-opacity:1;fill-rule:evenodd;stroke:none;display:inline"
       id="path2985-4-1-7-2-9-6-2-5-4-8"
       sodipodi:cx="83.337585"
       sodipodi:cy="210.22887"
       sodipodi:rx="20.708128"
       sodipodi:ry="20.708128"
       d="m 104.04571,210.22887 a 20.708128,20.708128 0 1 1 -41.416253,0 20.708128,20.708128 0 1 1 41.416253,0 z" />
  </g>
  <g
     inkscape:groupmode="layer"
     id="layer6"
     inkscape:label="Dots Top Right"
     style="display:inline">
    <path
       transform="matrix(0.59684653,0,0,0.59684653,98.627068,-75.988175)"
       sodipodi:type="arc"
       style="fill:#7d99cf;fill-opacity:1;fill-rule:evenodd;stroke:none;display:inline"
       id="path2985-4-1"
       sodipodi:cx="83.337585"
       sodipodi:cy="210.22887"
       sodipodi:rx="20.708128"
       sodipodi:ry="20.708128"
       d="m 104.04571,210.22887 a 20.708128,20.708128 0 1 1 -41.416253,0 20.708128,20.708128 0 1 1 41.416253,0 z" />
    <path
       transform="matrix(0.32456253,0,0,0.32456253,100.44697,4.8400798)"
       sodipodi:type="arc"
       style="fill:#dffef0;fill-opacity:1;fill-rule:evenodd;stroke:none;display:inline"
       id="path2985-4-1-7-2-9-6-2-5"
       sodipodi:cx="83.337585"
       sodipodi:cy="210.22887"
       sodipodi:rx="20.708128"
       sodipodi:ry="20.708128"
       d="m 104.04571,210.22887 a 20.708128,20.708128 0 1 1 -41.416253,0 20.708128,20.708128 0 1 1 41.416253,0 z" />
  </g>
  <g
     inkscape:groupmode="layer"
     id="layer2"
     inkscape:label="Dots Top"
     style="display:inline">
    <path
       transform="matrix(0.59684653,0,0,0.59684653,49.373593,-95.305415)"
       sodipodi:type="arc"
       style="fill:#bdd8da;fill-opacity:1;fill-rule:evenodd;stroke:none;display:inline"
       id="path2985-4-1-7-2-9-6"
       sodipodi:cx="83.337585"
       sodipodi:cy="210.22887"
       sodipodi:rx="20.708128"
       sodipodi:ry="20.708128"
       d="m 104.04571,210.22887 a 20.708128,20.708128 0 1 1 -41.416253,0 20.708128,20.708128 0 1 1 41.416253,0 z" />
    <path
       transform="matrix(0.32456253,0,0,0.32456253,72.886435,-6.4278202)"
       sodipodi:type="arc"
       style="fill:#dffef0;fill-opacity:1;fill-rule:evenodd;stroke:none;display:inline"
       id="path2985-4-1-7-2-9-6-2-5-4-8-6"
       sodipodi:cx="83.337585"
       sodipodi:cy="210.22887"
       sodipodi:rx="20.708128"
       sodipodi:ry="20.708128"
       d="m 104.04571,210.22887 a 20.708128,20.708128 0 1 1 -41.416253,0 20.708128,20.708128 0 1 1 41.416253,0 z" />
  </g>
</svg>
