<?xml version="1.0" encoding="UTF-8" standalone="no"?>
<!-- Created with Inkscape (http://www.inkscape.org/) -->

<svg
   xmlns:dc="http://purl.org/dc/elements/1.1/"
   xmlns:cc="http://creativecommons.org/ns#"
   xmlns:rdf="http://www.w3.org/1999/02/22-rdf-syntax-ns#"
   xmlns:svg="http://www.w3.org/2000/svg"
   xmlns="http://www.w3.org/2000/svg"
   xmlns:sodipodi="http://sodipodi.sourceforge.net/DTD/sodipodi-0.dtd"
   xmlns:inkscape="http://www.inkscape.org/namespaces/inkscape"
   width="1280"
   height="720"
   id="svg2"
   version="1.1"
   inkscape:version="0.48.2 r9819"
   sodipodi:docname="slide-title-master.svg">
  <sodipodi:namedview
     id="base"
     pagecolor="#ffffff"
     bordercolor="#666666"
     borderopacity="1.0"
     inkscape:pageopacity="0"
     inkscape:pageshadow="2"
     inkscape:zoom="0.6984375"
     inkscape:cx="718.7472"
     inkscape:cy="360"
     inkscape:document-units="px"
     inkscape:current-layer="layer1"
     showgrid="false"
     inkscape:window-width="1366"
     inkscape:window-height="736"
     inkscape:window-x="0"
     inkscape:window-y="16"
     inkscape:window-maximized="0" />
  <defs
     id="defs4">
    <linearGradient
       id="linearGradient4478">
      <stop
         style="stop-color:#ad235e;stop-opacity:1;"
         offset="0"
         id="stop4480" />
      <stop
         style="stop-color:#ad235e;stop-opacity:0.35964912;"
         offset="1"
         id="stop4482" />
    </linearGradient>
    <linearGradient
       id="linearGradient4470">
      <stop
         style="stop-color:#ad235e;stop-opacity:1;"
         offset="0"
         id="stop4472" />
      <stop
         style="stop-color:#ad235e;stop-opacity:0;"
         offset="1"
         id="stop4474" />
    </linearGradient>
  </defs>
  <metadata
     id="metadata7">
    <rdf:RDF>
      <cc:Work
         rdf:about="">
        <dc:format>image/svg+xml</dc:format>
        <dc:type
           rdf:resource="http://purl.org/dc/dcmitype/StillImage" />
        <dc:title></dc:title>
      </cc:Work>
    </rdf:RDF>
  </metadata>
  <g
     inkscape:label="Backgrounds"
     inkscape:groupmode="layer"
     id="layer1"
     transform="translate(0,-332.36218)"
     style="display:inline">
    <path
       style="opacity:0.75;color:#000000;fill:#ad235e;fill-opacity:1;fill-rule:nonzero;stroke:none;stroke-width:1px;marker:none;visibility:visible;display:inline;overflow:visible;enable-background:accumulate"
       d="m 5e-5,887.96065 1180.18355,0 99.8165,0 0,75.97638 -1280.00005,0 z"
       id="rect3936"
       inkscape:connector-curvature="0"
       sodipodi:nodetypes="cccccc" />
    <path
       sodipodi:nodetypes="cccccc"
       inkscape:connector-curvature="0"
       id="path4486"
       d="m 5e-5,857.96055 1180.18355,0 99.8165,0 0,30 -1280.00005,0 z"
       style="opacity:0.75;color:#000000;fill:#7d99cf;fill-opacity:1;fill-rule:nonzero;stroke:none;stroke-width:1px;marker:none;visibility:visible;display:inline;overflow:visible;enable-background:accumulate" />
    <text
       xml:space="preserve"
       style="font-size:24px;font-style:normal;font-weight:normal;line-height:125%;letter-spacing:0px;word-spacing:0px;fill:#373736;fill-opacity:1;stroke:none;font-family:Sans"
       x="18.675781"
       y="879.58167"
       id="text4996"
       sodipodi:linespacing="125%"><tspan
         sodipodi:role="line"
         id="tspan4998"
         x="18.675781"
         y="879.58167">emergenesis weekly update</tspan></text>
    <text
       sodipodi:linespacing="125%"
       id="text5000"
       y="881.90784"
       x="1031.7144"
       style="font-size:24px;font-style:normal;font-weight:normal;line-height:125%;letter-spacing:0px;word-spacing:0px;fill:#373736;fill-opacity:1;stroke:none;font-family:Sans"
       xml:space="preserve"><tspan
         y="881.90784"
         x="1031.7144"
         id="tspan5002"
         sodipodi:role="line">01 November 2012</tspan></text>
    <text
       xml:space="preserve"
       style="font-size:24px;font-style:normal;font-weight:normal;line-height:125%;letter-spacing:0px;word-spacing:0px;fill:#ffffff;fill-opacity:1;stroke:none;font-family:Sans"
       x="21.65625"
       y="920.93359"
       id="text5004"
       sodipodi:linespacing="125%"><tspan
         sodipodi:role="line"
         id="tspan5006"
         x="21.65625"
         y="920.93359"
         style="font-size:32px">Josh David Miller</tspan></text>
    <text
       sodipodi:linespacing="125%"
       id="text5008"
       y="953.79071"
       x="18.652344"
       style="font-size:24px;font-style:normal;font-weight:normal;line-height:125%;letter-spacing:0px;word-spacing:0px;fill:#ffffff;fill-opacity:1;stroke:none;font-family:Sans"
       xml:space="preserve"><tspan
         style="font-size:24px"
         y="953.79071"
         x="18.652344"
         id="tspan5010"
         sodipodi:role="line">Co-Founder</tspan></text>
  </g>
  <g
     inkscape:groupmode="layer"
     id="layer2"
     inkscape:label="Logo"
     style="display:inline">
    <g
       id="g3956"
       transform="matrix(1.5622841,0,0,1.5622841,1081.8095,-322.89649)"
       style="opacity:1">
      <path
         d="m 104.04571,210.22887 c 0,11.43678 -9.271341,20.70812 -20.708125,20.70812 -11.436783,0 -20.708128,-9.27134 -20.708128,-20.70812 0,-11.43679 9.271345,-20.70813 20.708128,-20.70813 11.436784,0 20.708125,9.27134 20.708125,20.70813 z"
         sodipodi:ry="20.708128"
         sodipodi:rx="20.708128"
         sodipodi:cy="210.22887"
         sodipodi:cx="83.337585"
         id="path2985-4-1-7-2-9"
         style="fill:#7d99cf;fill-opacity:1;fill-rule:evenodd;stroke:none;display:inline"
         sodipodi:type="arc"
         transform="matrix(0.14643447,0,0,0.14643447,70.262711,542.98034)" />
      <path
         d="m 104.04571,210.22887 c 0,11.43678 -9.271341,20.70812 -20.708125,20.70812 -11.436783,0 -20.708128,-9.27134 -20.708128,-20.70812 0,-11.43679 9.271345,-20.70813 20.708128,-20.70813 11.436784,0 20.708125,9.27134 20.708125,20.70813 z"
         sodipodi:ry="20.708128"
         sodipodi:rx="20.708128"
         sodipodi:cy="210.22887"
         sodipodi:cx="83.337585"
         id="path2985-4-1-7-2-9-6-2"
         style="fill:#dffef0;fill-opacity:1;fill-rule:evenodd;stroke:none;display:inline"
         sodipodi:type="arc"
         transform="matrix(0.07963042,0,0,0.07963042,81.445311,562.59355)" />
      <path
         d="m 104.04571,210.22887 c 0,11.43678 -9.271341,20.70812 -20.708125,20.70812 -11.436783,0 -20.708128,-9.27134 -20.708128,-20.70812 0,-11.43679 9.271345,-20.70813 20.708128,-20.70813 11.436784,0 20.708125,9.27134 20.708125,20.70813 z"
         sodipodi:ry="20.708128"
         sodipodi:rx="20.708128"
         sodipodi:cy="210.22887"
         sodipodi:cx="83.337585"
         id="path2985-4-1-7-2-9-6-1-5"
         style="fill:#bdd8da;fill-opacity:1;fill-rule:evenodd;stroke:none;display:inline"
         sodipodi:type="arc"
         transform="matrix(0.14643447,0,0,0.14643447,65.309221,555.0794)" />
      <path
         d="m 104.04571,210.22887 c 0,11.43678 -9.271341,20.70812 -20.708125,20.70812 -11.436783,0 -20.708128,-9.27134 -20.708128,-20.70812 0,-11.43679 9.271345,-20.70813 20.708128,-20.70813 11.436784,0 20.708125,9.27134 20.708125,20.70813 z"
         sodipodi:ry="20.708128"
         sodipodi:rx="20.708128"
         sodipodi:cy="210.22887"
         sodipodi:cx="83.337585"
         id="path2985-4-1-7-2-9-6-2-1-1"
         style="fill:#dffef0;fill-opacity:1;fill-rule:evenodd;stroke:none;display:inline"
         sodipodi:type="arc"
         transform="matrix(0.07963042,0,0,0.07963042,78.700071,569.31019)" />
      <path
         d="m 104.04571,210.22887 c 0,11.43678 -9.271341,20.70812 -20.708125,20.70812 -11.436783,0 -20.708128,-9.27134 -20.708128,-20.70812 0,-11.43679 9.271345,-20.70813 20.708128,-20.70813 11.436784,0 20.708125,9.27134 20.708125,20.70813 z"
         sodipodi:ry="20.708128"
         sodipodi:rx="20.708128"
         sodipodi:cy="210.22887"
         sodipodi:cx="83.337585"
         id="path2985-4-1-7-2"
         style="fill:#7d99cf;fill-opacity:1;fill-rule:evenodd;stroke:none;display:inline"
         sodipodi:type="arc"
         transform="matrix(0.14643447,0,0,0.14643447,70.117761,567.23941)" />
      <path
         d="m 104.04571,210.22887 c 0,11.43678 -9.271341,20.70812 -20.708125,20.70812 -11.436783,0 -20.708128,-9.27134 -20.708128,-20.70812 0,-11.43679 9.271345,-20.70813 20.708128,-20.70813 11.436784,0 20.708125,9.27134 20.708125,20.70813 z"
         sodipodi:ry="20.708128"
         sodipodi:rx="20.708128"
         sodipodi:cy="210.22887"
         sodipodi:cx="83.337585"
         id="path2985-4-1-7-2-9-6-2-1"
         style="fill:#dffef0;fill-opacity:1;fill-rule:evenodd;stroke:none;display:inline"
         sodipodi:type="arc"
         transform="matrix(0.07963042,0,0,0.07963042,81.449951,575.86596)" />
      <path
         d="m 104.04571,210.22887 c 0,11.43678 -9.271341,20.70812 -20.708125,20.70812 -11.436783,0 -20.708128,-9.27134 -20.708128,-20.70812 0,-11.43679 9.271345,-20.70813 20.708128,-20.70813 11.436784,0 20.708125,9.27134 20.708125,20.70813 z"
         sodipodi:ry="20.708128"
         sodipodi:rx="20.708128"
         sodipodi:cy="210.22887"
         sodipodi:cx="83.337585"
         id="path2985-4-1-7-2-9-6-1-5-2"
         style="fill:#bdd8da;fill-opacity:1;fill-rule:evenodd;stroke:none;display:inline"
         sodipodi:type="arc"
         transform="matrix(0.14643447,0,0,0.14643447,82.295621,572.35867)" />
      <path
         d="m 104.04571,210.22887 c 0,11.43678 -9.271341,20.70812 -20.708125,20.70812 -11.436783,0 -20.708128,-9.27134 -20.708128,-20.70812 0,-11.43679 9.271345,-20.70813 20.708128,-20.70813 11.436784,0 20.708125,9.27134 20.708125,20.70813 z"
         sodipodi:ry="20.708128"
         sodipodi:rx="20.708128"
         sodipodi:cy="210.22887"
         sodipodi:cx="83.337585"
         id="path2985-4-1-7-2-9-6-2-5-4-8-6-2"
         style="fill:#dffef0;fill-opacity:1;fill-rule:evenodd;stroke:none;display:inline"
         sodipodi:type="arc"
         transform="matrix(0.07963042,0,0,0.07963042,88.064421,578.6411)" />
      <path
         d="m 104.04571,210.22887 c 0,11.43678 -9.271341,20.70812 -20.708125,20.70812 -11.436783,0 -20.708128,-9.27134 -20.708128,-20.70812 0,-11.43679 9.271345,-20.70813 20.708128,-20.70813 11.436784,0 20.708125,9.27134 20.708125,20.70813 z"
         sodipodi:ry="20.708128"
         sodipodi:rx="20.708128"
         sodipodi:cy="210.22887"
         sodipodi:cx="83.337585"
         id="path2985-4-1-7"
         style="fill:#7d99cf;fill-opacity:1;fill-rule:evenodd;stroke:none;display:inline"
         sodipodi:type="arc"
         transform="matrix(0.14643447,0,0,0.14643447,94.376841,567.23941)" />
      <path
         d="m 104.04571,210.22887 c 0,11.43678 -9.271341,20.70812 -20.708125,20.70812 -11.436783,0 -20.708128,-9.27134 -20.708128,-20.70812 0,-11.43679 9.271345,-20.70813 20.708128,-20.70813 11.436784,0 20.708125,9.27134 20.708125,20.70813 z"
         sodipodi:ry="20.708128"
         sodipodi:rx="20.708128"
         sodipodi:cy="210.22887"
         sodipodi:cx="83.337585"
         id="path2985-4-1-7-2-9-6-2-5-4"
         style="fill:#dffef0;fill-opacity:1;fill-rule:evenodd;stroke:none;display:inline"
         sodipodi:type="arc"
         transform="matrix(0.07963042,0,0,0.07963042,94.834941,575.91985)" />
      <path
         d="m 104.04571,210.22887 c 0,11.43678 -9.271341,20.70812 -20.708125,20.70812 -11.436783,0 -20.708128,-9.27134 -20.708128,-20.70812 0,-11.43679 9.271345,-20.70813 20.708128,-20.70813 11.436784,0 20.708125,9.27134 20.708125,20.70813 z"
         sodipodi:ry="20.708128"
         sodipodi:rx="20.708128"
         sodipodi:cy="210.22887"
         sodipodi:cx="83.337585"
         id="path2985-4-1-7-2-9-6-1"
         style="fill:#bdd8da;fill-opacity:1;fill-rule:evenodd;stroke:none;display:inline"
         sodipodi:type="arc"
         transform="matrix(0.14643447,0,0,0.14643447,99.554071,554.96493)" />
      <path
         d="m 104.04571,210.22887 c 0,11.43678 -9.271341,20.70812 -20.708125,20.70812 -11.436783,0 -20.708128,-9.27134 -20.708128,-20.70812 0,-11.43679 9.271345,-20.70813 20.708128,-20.70813 11.436784,0 20.708125,9.27134 20.708125,20.70813 z"
         sodipodi:ry="20.708128"
         sodipodi:rx="20.708128"
         sodipodi:cy="210.22887"
         sodipodi:cx="83.337585"
         id="path2985-4-1-7-2-9-6-2-5-4-8"
         style="fill:#dffef0;fill-opacity:1;fill-rule:evenodd;stroke:none;display:inline"
         sodipodi:type="arc"
         transform="matrix(0.07963042,0,0,0.07963042,97.460821,569.31019)" />
      <path
         d="m 104.04571,210.22887 c 0,11.43678 -9.271341,20.70812 -20.708125,20.70812 -11.436783,0 -20.708128,-9.27134 -20.708128,-20.70812 0,-11.43679 9.271345,-20.70813 20.708128,-20.70813 11.436784,0 20.708125,9.27134 20.708125,20.70813 z"
         sodipodi:ry="20.708128"
         sodipodi:rx="20.708128"
         sodipodi:cy="210.22887"
         sodipodi:cx="83.337585"
         id="path2985-4-1"
         style="fill:#7d99cf;fill-opacity:1;fill-rule:evenodd;stroke:none;display:inline"
         sodipodi:type="arc"
         transform="matrix(0.14643447,0,0,0.14643447,94.379811,542.83242)" />
      <path
         d="m 104.04571,210.22887 c 0,11.43678 -9.271341,20.70812 -20.708125,20.70812 -11.436783,0 -20.708128,-9.27134 -20.708128,-20.70812 0,-11.43679 9.271345,-20.70813 20.708128,-20.70813 11.436784,0 20.708125,9.27134 20.708125,20.70813 z"
         sodipodi:ry="20.708128"
         sodipodi:rx="20.708128"
         sodipodi:cy="210.22887"
         sodipodi:cx="83.337585"
         id="path2985-4-1-7-2-9-6-2-5"
         style="fill:#dffef0;fill-opacity:1;fill-rule:evenodd;stroke:none;display:inline"
         sodipodi:type="arc"
         transform="matrix(0.07963042,0,0,0.07963042,94.826321,562.66339)" />
      <path
         d="m 104.04571,210.22887 c 0,11.43678 -9.271341,20.70812 -20.708125,20.70812 -11.436783,0 -20.708128,-9.27134 -20.708128,-20.70812 0,-11.43679 9.271345,-20.70813 20.708128,-20.70813 11.436784,0 20.708125,9.27134 20.708125,20.70813 z"
         sodipodi:ry="20.708128"
         sodipodi:rx="20.708128"
         sodipodi:cy="210.22887"
         sodipodi:cx="83.337585"
         id="path2985-4-1-7-2-9-6"
         style="fill:#bdd8da;fill-opacity:1;fill-rule:evenodd;stroke:none;display:inline"
         sodipodi:type="arc"
         transform="matrix(0.14643447,0,0,0.14643447,82.295621,538.093)" />
      <path
         d="m 104.04571,210.22887 c 0,11.43678 -9.271341,20.70812 -20.708125,20.70812 -11.436783,0 -20.708128,-9.27134 -20.708128,-20.70812 0,-11.43679 9.271345,-20.70813 20.708128,-20.70813 11.436784,0 20.708125,9.27134 20.708125,20.70813 z"
         sodipodi:ry="20.708128"
         sodipodi:rx="20.708128"
         sodipodi:cy="210.22887"
         sodipodi:cx="83.337585"
         id="path2985-4-1-7-2-9-6-2-5-4-8-6"
         style="fill:#dffef0;fill-opacity:1;fill-rule:evenodd;stroke:none;display:inline"
         sodipodi:type="arc"
         transform="matrix(0.07963042,0,0,0.07963042,88.064421,559.89884)" />
    </g>
  </g>
</svg>
